<?xml version="1.0" standalone="no"?>
<!DOCTYPE svg PUBLIC "-//W3C//DTD SVG 20010904//EN"
 "http://www.w3.org/TR/2001/REC-SVG-20010904/DTD/svg10.dtd">
<svg version="1.0" xmlns="http://www.w3.org/2000/svg"
 width="700.000000pt" height="700.000000pt" viewBox="0 0 700.000000 700.000000"
 preserveAspectRatio="xMidYMid meet">
<metadata>
Created by potrace 1.11, written by Peter Selinger 2001-2013
</metadata>
<g transform="translate(0.000000,700.000000) scale(0.100000,-0.100000)"
fill="#000000" stroke="none">
<path d="M5463 6984 c-45 -22 -63 -67 -64 -161 -2 -121 36 -176 120 -175 45 1
68 13 96 50 16 22 19 43 19 122 0 84 -2 100 -22 127 -14 20 -37 36 -60 43 -47
13 -51 13 -89 -6z"/>
<path d="M5927 6977 c-50 -41 -56 -68 -54 -226 2 -179 9 -193 108 -224 9 -3
35 3 58 14 61 27 71 58 71 225 0 184 -19 223 -115 229 -31 2 -49 -3 -68 -18z"/>
<path d="M5480 6518 c-33 -12 -60 -38 -72 -67 -9 -24 -12 -268 -4 -306 2 -11
5 -23 5 -26 1 -4 12 -18 26 -32 51 -50 140 -41 180 19 17 26 19 48 19 188 0
116 -3 161 -12 164 -7 2 -12 10 -12 17 0 29 -89 58 -130 43z"/>
<path d="M5963 6402 c-36 -6 -81 -57 -87 -99 -3 -21 -4 -148 -3 -283 2 -266 4
-272 59 -305 65 -38 148 -7 168 63 8 24 10 128 8 298 -3 245 -4 263 -23 284
-33 36 -74 51 -122 42z"/>
<path d="M3450 6228 c-45 -33 -792 -558 -854 -600 -10 -7 -29 -21 -42 -31 -13
-10 -45 -32 -71 -50 -26 -18 -149 -104 -273 -191 -240 -170 -656 -462 -722
-509 -106 -74 -1069 -751 -1184 -833 -177 -125 -227 -192 -240 -321 -23 -215
153 -398 374 -388 80 4 139 32 298 142 71 49 135 93 142 97 9 6 12 -54 12
-287 l0 -293 -53 -22 c-152 -63 -224 -242 -157 -389 34 -73 87 -126 156 -154
l54 -23 0 -300 0 -301 -49 -18 c-61 -21 -133 -90 -162 -155 -32 -73 -30 -173
5 -245 32 -66 92 -122 156 -147 l45 -18 3 -301 2 -301 -27 -10 c-85 -31 -143
-82 -180 -158 -34 -70 -36 -172 -5 -242 27 -64 101 -134 165 -159 52 -20 68
-20 2667 -18 l2615 2 45 21 c209 98 236 384 47 512 -54 37 -98 51 -170 53
l-57 2 2 296 3 296 50 2 c28 2 61 6 75 9 14 4 30 8 36 9 24 6 92 55 119 87
139 164 59 421 -147 475 -29 7 -72 13 -95 13 l-43 0 0 293 0 293 84 11 c122
17 196 69 244 172 37 80 35 206 -4 252 -8 8 -14 20 -14 26 0 19 -74 84 -124
108 -44 21 -98 32 -168 34 -17 1 -18 21 -18 281 0 154 3 280 8 280 4 -1 99
-67 211 -149 240 -175 289 -198 403 -187 247 23 398 279 293 500 -35 74 -76
115 -220 220 -66 48 -127 93 -135 99 -8 7 -49 37 -90 67 -41 30 -81 60 -88 67
-7 7 -26 20 -42 30 -17 9 -30 21 -30 25 0 20 -98 100 -142 116 l-48 17 0 561
0 561 -357 0 -358 -1 2 -293 c1 -161 0 -293 -3 -293 -2 0 -12 6 -21 14 -14 12
-384 286 -527 391 -15 11 -58 43 -95 70 -67 50 -170 126 -356 263 -55 40 -107
78 -115 85 -8 7 -179 133 -380 281 -201 148 -372 275 -380 282 -12 10 -24 6
-70 -28z"/>
<path d="M5463 5916 c-61 -28 -81 -107 -40 -166 55 -82 179 -61 206 36 26 93
-74 171 -166 130z"/>
</g>
</svg>
